<svg width="395" height="347" viewBox="0 0 395 347" fill="none" xmlns="http://www.w3.org/2000/svg">
<path d="M392.088 343.265V260C392.088 221.563 371.324 197.81 342.528 197.81C317.833 197.81 301.683 216.208 300.828 238.924H299.119C295.103 218.454 280.15 204.72 260.838 204.72C234.178 204.72 217.088 226.141 217.088 266.564V343.265H392.088ZM354.149 295.241H317.235V272.092C317.235 257.495 324.071 248.598 336.375 248.598C348.082 248.598 354.149 256.631 354.149 272.783V295.241ZM287.84 295.241H254.344V274.856C254.344 262.937 260.325 254.126 271.092 254.126C281.859 254.126 287.84 262.937 287.84 275.547V295.241Z" stroke="#202020" stroke-width="5"/>
<path d="M217.088 132.425V186.668L392.088 128.279V62.6343L217.088 4.24515V58.4883L340.477 94.7656V96.1476L217.088 132.425Z" stroke="#202020" stroke-width="5"/>
<path d="M3 4V87.2649C3 125.702 23.7642 149.455 52.5606 149.455C77.2554 149.455 93.4053 131.057 94.2598 108.34H95.9688C99.9849 128.811 114.938 142.545 134.25 142.545C160.91 142.545 178 121.124 178 80.7005V4L3 4ZM40.9395 52.0242L77.8535 52.0242L77.8535 75.1725C77.8535 89.7698 71.0176 98.6664 58.7129 98.6664C47.0064 98.6664 40.9395 90.6336 40.9395 74.4815V52.0242ZM107.248 52.0242H140.744V72.4085C140.744 84.3282 134.763 93.1384 123.996 93.1384C113.229 93.1384 107.248 84.3282 107.248 71.7175L107.248 52.0242Z" stroke="white" stroke-width="5"/>
<path d="M178 214.84V160.597L3 218.986V284.63L178 343.02L178 288.776L54.6113 252.499V251.117L178 214.84Z" stroke="white" stroke-width="5"/>
</svg>
