<svg width="340" height="176" viewBox="0 0 340 176" fill="none" xmlns="http://www.w3.org/2000/svg">
<path d="M0.0784302 175.255H83.3434C121.78 175.255 145.533 154.491 145.533 125.694C145.533 101 127.135 84.8496 104.419 83.9951V82.2861C124.889 78.27 138.623 63.3164 138.623 44.0049C138.623 17.3447 117.202 0.254883 76.7789 0.254883H0.0784302V175.255ZM48.1026 137.315V100.401H71.251C85.8482 100.401 94.7448 107.237 94.7448 119.542C94.7448 131.249 86.712 137.315 70.56 137.315H48.1026ZM48.1026 71.0068V37.5107H68.487C80.4066 37.5107 89.2168 43.4922 89.2168 54.2588C89.2168 65.0254 80.4066 71.0068 67.796 71.0068H48.1026Z" fill="white"/>
<path d="M210.918 0.254883H156.675L215.064 175.255H280.709L339.098 0.254883H284.855L248.578 123.644H247.196L210.918 0.254883Z" fill="white"/>
<path d="M0.0784302 175.255H83.3434C121.78 175.255 145.533 154.491 145.533 125.694C145.533 101 127.135 84.8496 104.419 83.9951V82.2861C124.889 78.27 138.623 63.3164 138.623 44.0049C138.623 17.3447 117.202 0.254883 76.7789 0.254883H0.0784302V175.255ZM48.1026 137.315V100.401H71.251C85.8482 100.401 94.7448 107.237 94.7448 119.542C94.7448 131.249 86.712 137.315 70.56 137.315H48.1026ZM48.1026 71.0068V37.5107H68.487C80.4066 37.5107 89.2168 43.4922 89.2168 54.2588C89.2168 65.0254 80.4066 71.0068 67.796 71.0068H48.1026Z" stroke="white"/>
<path d="M210.918 0.254883H156.675L215.064 175.255H280.709L339.098 0.254883H284.855L248.578 123.644H247.196L210.918 0.254883Z" stroke="white"/>
</svg>
